<?xml version="1.0" encoding="UTF-8"?>
<svg xmlns="http://www.w3.org/2000/svg" version="1.1" width="13.333in" height="7.5in" viewBox="0 0 1280 720">
<rect x="0" y="0" width="1280" height="720" fill="#FFFFFF"/>
<rect x="45" y="20" width="12" height="26" fill="#0070C0"/>
<rect x="60" y="20" width="7" height="26" fill="#4472C4"/>
<text x="79" font-family="Microsoft YaHei, SimHei, Noto Sans CJK SC, WenQuanYi Zen Hei, sans-serif" font-size="29.33" fill="#000000" text-anchor="start" font-weight="bold"><tspan x="79" y="42.97">研究内容关系图示例</tspan></text>
<rect x="60" y="90" width="260" height="234" fill="#F6F8FC" stroke="#000000" stroke-width="2"/>
<text x="190" font-family="Microsoft YaHei, SimHei, Noto Sans CJK SC, WenQuanYi Zen Hei, sans-serif" font-size="20" fill="#000000" text-anchor="middle" font-weight="bold"><tspan x="190" y="120.8">方向一：数据采集与预处理</tspan></text>
<rect x="74" y="140" width="232" height="36" rx="5" ry="5" fill="#4472C4" stroke="#000000" stroke-width="2"/>
<text x="190" font-family="Microsoft YaHei, SimHei, Noto Sans CJK SC, WenQuanYi Zen Hei, sans-serif" font-size="17.33" fill="#FFFFFF" text-anchor="middle" font-weight="bold"><tspan x="190" y="163.89">多源异构数据采集</tspan></text>
<rect x="74" y="194" width="232" height="114" rx="6" ry="6" fill="none" stroke="#4472C4" stroke-width="2" stroke-dasharray="6.4 4"/>
<rect x="86" y="216" width="208" height="36" rx="5" ry="5" fill="#DAE3F3" stroke="#000000" stroke-width="2"/>
<text x="190" font-family="Microsoft YaHei, SimHei, Noto Sans CJK SC, WenQuanYi Zen Hei, sans-serif" font-size="16" fill="#000000" text-anchor="middle"><tspan x="190" y="239.44">数据清洗与标准化</tspan></text>
<rect x="86" y="262" width="208" height="36" rx="5" ry="5" fill="#DAE3F3" stroke="#000000" stroke-width="2"/>
<text x="190" font-family="Microsoft YaHei, SimHei, Noto Sans CJK SC, WenQuanYi Zen Hei, sans-serif" font-size="16" fill="#000000" text-anchor="middle"><tspan x="190" y="285.44">数据标注与增强</tspan></text>
<polygon points="323,215.12 341.7,215.12 341.7,221 357,207 341.7,193 341.7,198.88 323,198.88" fill="#FFC000" stroke="#000000" stroke-width="1.6"/>
<rect x="360" y="90" width="260" height="234" fill="#FFFDFB" stroke="#000000" stroke-width="2"/>
<text x="490" font-family="Microsoft YaHei, SimHei, Noto Sans CJK SC, WenQuanYi Zen Hei, sans-serif" font-size="20" fill="#000000" text-anchor="middle" font-weight="bold"><tspan x="490" y="120.8">方向二：特征提取与表示</tspan></text>
<rect x="374" y="140" width="232" height="36" rx="5" ry="5" fill="#ED7D31" stroke="#000000" stroke-width="2"/>
<text x="490" font-family="Microsoft YaHei, SimHei, Noto Sans CJK SC, WenQuanYi Zen Hei, sans-serif" font-size="17.33" fill="#FFFFFF" text-anchor="middle" font-weight="bold"><tspan x="490" y="163.89">多模态特征提取</tspan></text>
<rect x="374" y="194" width="232" height="114" rx="6" ry="6" fill="none" stroke="#ED7D31" stroke-width="2" stroke-dasharray="6.4 4"/>
<rect x="386" y="216" width="208" height="36" rx="5" ry="5" fill="#FBE5D6" stroke="#000000" stroke-width="2"/>
<text x="490" font-family="Microsoft YaHei, SimHei, Noto Sans CJK SC, WenQuanYi Zen Hei, sans-serif" font-size="16" fill="#000000" text-anchor="middle"><tspan x="490" y="239.44">特征对齐与融合</tspan></text>
<rect x="386" y="262" width="208" height="36" rx="5" ry="5" fill="#FBE5D6" stroke="#000000" stroke-width="2"/>
<text x="490" font-family="Microsoft YaHei, SimHei, Noto Sans CJK SC, WenQuanYi Zen Hei, sans-serif" font-size="16" fill="#000000" text-anchor="middle"><tspan x="490" y="285.44">知识图谱构建</tspan></text>
<polygon points="623,215.12 641.7,215.12 641.7,221 657,207 641.7,193 641.7,198.88 623,198.88" fill="#FFC000" stroke="#000000" stroke-width="1.6"/>
<rect x="660" y="90" width="260" height="234" fill="#F8FCF6" stroke="#000000" stroke-width="2"/>
<text x="790" font-family="Microsoft YaHei, SimHei, Noto Sans CJK SC, WenQuanYi Zen Hei, sans-serif" font-size="20" fill="#000000" text-anchor="middle" font-weight="bold"><tspan x="790" y="120.8">方向三：模型构建与训练</tspan></text>
<rect x="674" y="140" width="232" height="36" rx="5" ry="5" fill="#70AD47" stroke="#000000" stroke-width="2"/>
<text x="790" font-family="Microsoft YaHei, SimHei, Noto Sans CJK SC, WenQuanYi Zen Hei, sans-serif" font-size="17.33" fill="#FFFFFF" text-anchor="middle" font-weight="bold"><tspan x="790" y="163.89">深度学习模型</tspan></text>
<rect x="674" y="194" width="232" height="114" rx="6" ry="6" fill="none" stroke="#70AD47" stroke-width="2" stroke-dasharray="6.4 4"/>
<rect x="686" y="216" width="208" height="36" rx="5" ry="5" fill="#E2EFDA" stroke="#000000" stroke-width="2"/>
<text x="790" font-family="Microsoft YaHei, SimHei, Noto Sans CJK SC, WenQuanYi Zen Hei, sans-serif" font-size="16" fill="#000000" text-anchor="middle"><tspan x="790" y="239.44">迁移学习策略</tspan></text>
<rect x="686" y="262" width="208" height="36" rx="5" ry="5" fill="#E2EFDA" stroke="#000000" stroke-width="2"/>
<text x="790" font-family="Microsoft YaHei, SimHei, Noto Sans CJK SC, WenQuanYi Zen Hei, sans-serif" font-size="16" fill="#000000" text-anchor="middle"><tspan x="790" y="285.44">模型压缩优化</tspan></text>
<polygon points="923,215.12 941.7,215.12 941.7,221 957,207 941.7,193 941.7,198.88 923,198.88" fill="#FFC000" stroke="#000000" stroke-width="1.6"/>
<rect x="960" y="90" width="260" height="234" fill="#F2EEFC" stroke="#000000" stroke-width="2"/>
<text x="1090" font-family="Microsoft YaHei, SimHei, Noto Sans CJK SC, WenQuanYi Zen Hei, sans-serif" font-size="20" fill="#000000" text-anchor="middle" font-weight="bold"><tspan x="1090" y="120.8">方向四：应用验证与评估</tspan></text>
<rect x="974" y="140" width="232" height="36" rx="5" ry="5" fill="#7030A0" stroke="#000000" stroke-width="2"/>
<text x="1090" font-family="Microsoft YaHei, SimHei, Noto Sans CJK SC, WenQuanYi Zen Hei, sans-serif" font-size="17.33" fill="#FFFFFF" text-anchor="middle" font-weight="bold"><tspan x="1090" y="163.89">场景部署</tspan></text>
<rect x="974" y="194" width="232" height="114" rx="6" ry="6" fill="none" stroke="#7030A0" stroke-width="2" stroke-dasharray="6.4 4"/>
<rect x="986" y="216" width="208" height="36" rx="5" ry="5" fill="#EEEDFD" stroke="#000000" stroke-width="2"/>
<text x="1090" font-family="Microsoft YaHei, SimHei, Noto Sans CJK SC, WenQuanYi Zen Hei, sans-serif" font-size="16" fill="#000000" text-anchor="middle"><tspan x="1090" y="239.44">效果评估指标</tspan></text>
<rect x="986" y="262" width="208" height="36" rx="5" ry="5" fill="#EEEDFD" stroke="#000000" stroke-width="2"/>
<text x="1090" font-family="Microsoft YaHei, SimHei, Noto Sans CJK SC, WenQuanYi Zen Hei, sans-serif" font-size="16" fill="#000000" text-anchor="middle"><tspan x="1090" y="285.44">迭代优化</tspan></text>
</svg>
