<?xml version="1.0" encoding="UTF-8"?>
<svg xmlns="http://www.w3.org/2000/svg" version="1.1" width="13.333in" height="7.5in" viewBox="0 0 1280 720">
<rect x="0" y="0" width="1280" height="720" fill="#FFFFFF"/>
<rect x="45" y="20" width="12" height="26" fill="#0070C0"/>
<rect x="60" y="20" width="7" height="26" fill="#4472C4"/>
<text x="79" font-family="Microsoft YaHei, SimHei, Noto Sans CJK SC, WenQuanYi Zen Hei, sans-serif" font-size="29.33" fill="#000000" text-anchor="start" font-weight="bold"><tspan x="79" y="42.97">研究内容关系图示例</tspan></text>
<rect x="100" y="90" width="150" height="99.5" rx="4" ry="4" fill="#4472C4" stroke="#000000" stroke-width="2"/>
<text x="175" font-family="Microsoft YaHei, SimHei, Noto Sans CJK SC, WenQuanYi Zen Hei, sans-serif" font-size="18.67" fill="#FFFFFF" text-anchor="middle" font-weight="bold"><tspan x="175" y="133.78">方向一：数据</tspan><tspan x="175" y="158.42">采集与预处理</tspan></text>
<rect x="258" y="90" width="922" height="99.5" rx="4" ry="4" fill="#D4EBFC" stroke="#000000" stroke-width="2"/>
<rect x="270" y="113.75" width="290" height="52" rx="5" ry="5" fill="#DAE3F3" stroke="#000000" stroke-width="2"/>
<text x="415" font-family="Microsoft YaHei, SimHei, Noto Sans CJK SC, WenQuanYi Zen Hei, sans-serif" font-size="16" fill="#000000" text-anchor="middle"><tspan x="415" y="145.19">多源异构数据采集</tspan></text>
<rect x="574" y="113.75" width="290" height="52" rx="5" ry="5" fill="#DAE3F3" stroke="#000000" stroke-width="2"/>
<text x="719" font-family="Microsoft YaHei, SimHei, Noto Sans CJK SC, WenQuanYi Zen Hei, sans-serif" font-size="16" fill="#000000" text-anchor="middle"><tspan x="719" y="145.19">数据清洗与标准化</tspan></text>
<rect x="878" y="113.75" width="290" height="52" rx="5" ry="5" fill="#DAE3F3" stroke="#000000" stroke-width="2"/>
<text x="1023" font-family="Microsoft YaHei, SimHei, Noto Sans CJK SC, WenQuanYi Zen Hei, sans-serif" font-size="16" fill="#000000" text-anchor="middle"><tspan x="1023" y="145.19">数据标注与增强</tspan></text>
<polygon points="537.7,228.5 537.7,209.8 544,209.8 529,194.5 514,209.8 520.3,209.8 520.3,228.5" fill="#FFC000" stroke="#000000" stroke-width="1.6"/>
<text x="568.08" font-family="Microsoft YaHei, SimHei, Noto Sans CJK SC, WenQuanYi Zen Hei, sans-serif" font-size="16" fill="#000000" text-anchor="middle" font-weight="bold"><tspan x="568.08" y="216.94">支撑</tspan></text>
<polygon points="909.7,228.5 909.7,209.8 916,209.8 901,194.5 886,209.8 892.3,209.8 892.3,228.5" fill="#FFC000" stroke="#000000" stroke-width="1.6"/>
<rect x="100" y="233.5" width="150" height="99.5" rx="4" ry="4" fill="#ED7D31" stroke="#000000" stroke-width="2"/>
<text x="175" font-family="Microsoft YaHei, SimHei, Noto Sans CJK SC, WenQuanYi Zen Hei, sans-serif" font-size="18.67" fill="#FFFFFF" text-anchor="middle" font-weight="bold"><tspan x="175" y="277.28">方向二：特征</tspan><tspan x="175" y="301.92">提取与表示</tspan></text>
<rect x="258" y="233.5" width="922" height="99.5" rx="4" ry="4" fill="#FFEDE4" stroke="#000000" stroke-width="2"/>
<rect x="270" y="257.25" width="290" height="52" rx="5" ry="5" fill="#FBE5D6" stroke="#000000" stroke-width="2"/>
<text x="415" font-family="Microsoft YaHei, SimHei, Noto Sans CJK SC, WenQuanYi Zen Hei, sans-serif" font-size="16" fill="#000000" text-anchor="middle"><tspan x="415" y="288.69">多模态特征提取</tspan></text>
<rect x="574" y="257.25" width="290" height="52" rx="5" ry="5" fill="#FBE5D6" stroke="#000000" stroke-width="2"/>
<text x="719" font-family="Microsoft YaHei, SimHei, Noto Sans CJK SC, WenQuanYi Zen Hei, sans-serif" font-size="16" fill="#000000" text-anchor="middle"><tspan x="719" y="288.69">特征对齐与融合</tspan></text>
<rect x="878" y="257.25" width="290" height="52" rx="5" ry="5" fill="#FBE5D6" stroke="#000000" stroke-width="2"/>
<text x="1023" font-family="Microsoft YaHei, SimHei, Noto Sans CJK SC, WenQuanYi Zen Hei, sans-serif" font-size="16" fill="#000000" text-anchor="middle"><tspan x="1023" y="288.69">知识图谱构建</tspan></text>
<polygon points="537.7,372 537.7,353.3 544,353.3 529,338 514,353.3 520.3,353.3 520.3,372" fill="#FFC000" stroke="#000000" stroke-width="1.6"/>
<text x="568.08" font-family="Microsoft YaHei, SimHei, Noto Sans CJK SC, WenQuanYi Zen Hei, sans-serif" font-size="16" fill="#000000" text-anchor="middle" font-weight="bold"><tspan x="568.08" y="360.44">支撑</tspan></text>
<polygon points="909.7,372 909.7,353.3 916,353.3 901,338 886,353.3 892.3,353.3 892.3,372" fill="#FFC000" stroke="#000000" stroke-width="1.6"/>
<rect x="100" y="377" width="150" height="99.5" rx="4" ry="4" fill="#70AD47" stroke="#000000" stroke-width="2"/>
<text x="175" font-family="Microsoft YaHei, SimHei, Noto Sans CJK SC, WenQuanYi Zen Hei, sans-serif" font-size="18.67" fill="#FFFFFF" text-anchor="middle" font-weight="bold"><tspan x="175" y="420.78">方向三：模型</tspan><tspan x="175" y="445.42">构建与训练</tspan></text>
<rect x="258" y="377" width="922" height="99.5" rx="4" ry="4" fill="#ECF9E7" stroke="#000000" stroke-width="2"/>
<rect x="270" y="400.75" width="290" height="52" rx="5" ry="5" fill="#E2EFDA" stroke="#000000" stroke-width="2"/>
<text x="415" font-family="Microsoft YaHei, SimHei, Noto Sans CJK SC, WenQuanYi Zen Hei, sans-serif" font-size="16" fill="#000000" text-anchor="middle"><tspan x="415" y="432.19">深度学习模型</tspan></text>
<rect x="574" y="400.75" width="290" height="52" rx="5" ry="5" fill="#E2EFDA" stroke="#000000" stroke-width="2"/>
<text x="719" font-family="Microsoft YaHei, SimHei, Noto Sans CJK SC, WenQuanYi Zen Hei, sans-serif" font-size="16" fill="#000000" text-anchor="middle"><tspan x="719" y="432.19">迁移学习策略</tspan></text>
<rect x="878" y="400.75" width="290" height="52" rx="5" ry="5" fill="#E2EFDA" stroke="#000000" stroke-width="2"/>
<text x="1023" font-family="Microsoft YaHei, SimHei, Noto Sans CJK SC, WenQuanYi Zen Hei, sans-serif" font-size="16" fill="#000000" text-anchor="middle"><tspan x="1023" y="432.19">模型压缩优化</tspan></text>
<polygon points="537.7,515.5 537.7,496.8 544,496.8 529,481.5 514,496.8 520.3,496.8 520.3,515.5" fill="#FFC000" stroke="#000000" stroke-width="1.6"/>
<text x="568.08" font-family="Microsoft YaHei, SimHei, Noto Sans CJK SC, WenQuanYi Zen Hei, sans-serif" font-size="16" fill="#000000" text-anchor="middle" font-weight="bold"><tspan x="568.08" y="503.94">支撑</tspan></text>
<polygon points="909.7,515.5 909.7,496.8 916,496.8 901,481.5 886,496.8 892.3,496.8 892.3,515.5" fill="#FFC000" stroke="#000000" stroke-width="1.6"/>
<rect x="100" y="520.5" width="150" height="99.5" rx="4" ry="4" fill="#7030A0" stroke="#000000" stroke-width="2"/>
<text x="175" font-family="Microsoft YaHei, SimHei, Noto Sans CJK SC, WenQuanYi Zen Hei, sans-serif" font-size="18.67" fill="#FFFFFF" text-anchor="middle" font-weight="bold"><tspan x="175" y="564.28">方向四：应用</tspan><tspan x="175" y="588.92">验证与评估</tspan></text>
<rect x="258" y="520.5" width="922" height="99.5" rx="4" ry="4" fill="#F5EBFF" stroke="#000000" stroke-width="2"/>
<rect x="270" y="544.25" width="290" height="52" rx="5" ry="5" fill="#EEEDFD" stroke="#000000" stroke-width="2"/>
<text x="415" font-family="Microsoft YaHei, SimHei, Noto Sans CJK SC, WenQuanYi Zen Hei, sans-serif" font-size="16" fill="#000000" text-anchor="middle"><tspan x="415" y="575.69">场景部署</tspan></text>
<rect x="574" y="544.25" width="290" height="52" rx="5" ry="5" fill="#EEEDFD" stroke="#000000" stroke-width="2"/>
<text x="719" font-family="Microsoft YaHei, SimHei, Noto Sans CJK SC, WenQuanYi Zen Hei, sans-serif" font-size="16" fill="#000000" text-anchor="middle"><tspan x="719" y="575.69">效果评估指标</tspan></text>
<rect x="878" y="544.25" width="290" height="52" rx="5" ry="5" fill="#EEEDFD" stroke="#000000" stroke-width="2"/>
<text x="1023" font-family="Microsoft YaHei, SimHei, Noto Sans CJK SC, WenQuanYi Zen Hei, sans-serif" font-size="16" fill="#000000" text-anchor="middle"><tspan x="1023" y="575.69">迭代优化</tspan></text>
</svg>
