<?xml version="1.0" encoding="UTF-8"?>
<svg xmlns="http://www.w3.org/2000/svg" version="1.1" width="13.333in" height="7.5in" viewBox="0 0 1280 720">
<rect x="0" y="0" width="1280" height="720" fill="#FFFFFF"/>
<rect x="45" y="20" width="12" height="26" fill="#0070C0"/>
<rect x="60" y="20" width="7" height="26" fill="#4472C4"/>
<text x="79" font-family="Microsoft YaHei, SimHei, Noto Sans CJK SC, WenQuanYi Zen Hei, sans-serif" font-size="29.33" fill="#000000" text-anchor="start" font-weight="bold"><tspan x="79" y="42.97">研究内容关系图示例</tspan></text>
<polygon points="60,135 325.15,135 353.75,109 325.15,83 60,83" fill="#4472C4"/>
<text x="192.57" font-family="Microsoft YaHei, SimHei, Noto Sans CJK SC, WenQuanYi Zen Hei, sans-serif" font-size="18.67" fill="#FFFFFF" text-anchor="middle" font-weight="bold"><tspan x="192.57" y="115.35">方向一：数据采集与预处理</tspan></text>
<polygon points="348.75,135 613.9,135 642.5,109 613.9,83 348.75,83 377.35,109" fill="#ED7D31"/>
<text x="495.62" font-family="Microsoft YaHei, SimHei, Noto Sans CJK SC, WenQuanYi Zen Hei, sans-serif" font-size="20" fill="#FFFFFF" text-anchor="middle" font-weight="bold"><tspan x="495.62" y="115.8">方向二：特征提取与表示</tspan></text>
<polygon points="637.5,135 902.65,135 931.25,109 902.65,83 637.5,83 666.1,109" fill="#70AD47"/>
<text x="784.38" font-family="Microsoft YaHei, SimHei, Noto Sans CJK SC, WenQuanYi Zen Hei, sans-serif" font-size="20" fill="#FFFFFF" text-anchor="middle" font-weight="bold"><tspan x="784.38" y="115.8">方向三：模型构建与训练</tspan></text>
<polygon points="926.25,135 1191.4,135 1220,109 1191.4,83 926.25,83 954.85,109" fill="#7030A0"/>
<text x="1073.12" font-family="Microsoft YaHei, SimHei, Noto Sans CJK SC, WenQuanYi Zen Hei, sans-serif" font-size="20" fill="#FFFFFF" text-anchor="middle" font-weight="bold"><tspan x="1073.12" y="115.8">方向四：应用验证与评估</tspan></text>
<rect x="60" y="145" width="272" height="272" fill="#F6F8FC" stroke="#000000" stroke-width="2"/>
<rect x="72" y="189" width="248" height="110" rx="6" ry="6" fill="#F6F8FC" stroke="#000000" stroke-width="2" stroke-dasharray="6.4 4"/>
<rect x="108.2" y="171" width="175.6" height="36" rx="5" ry="5" fill="#4472C4"/>
<text x="196" font-family="Microsoft YaHei, SimHei, Noto Sans CJK SC, WenQuanYi Zen Hei, sans-serif" font-size="17.33" fill="#FFFFFF" text-anchor="middle" font-weight="bold"><tspan x="196" y="194.89">多源异构数据采集</tspan></text>
<rect x="82" y="241" width="228" height="42" rx="5" ry="5" fill="#DAE3F3" stroke="#000000" stroke-width="2"/>
<text x="196" font-family="Microsoft YaHei, SimHei, Noto Sans CJK SC, WenQuanYi Zen Hei, sans-serif" font-size="16" fill="#000000" text-anchor="middle"><tspan x="196" y="267.44">数据清洗与标准化</tspan></text>
<rect x="72" y="363" width="248" height="40" rx="5" ry="5" fill="#4472C4" stroke="#000000" stroke-width="2"/>
<text x="196" font-family="Microsoft YaHei, SimHei, Noto Sans CJK SC, WenQuanYi Zen Hei, sans-serif" font-size="16" fill="#FFFFFF" text-anchor="middle" font-weight="bold"><tspan x="196" y="388.44">数据标注与增强</tspan></text>
<polygon points="188.46,316 188.46,332.5 183,332.5 196,346 209,332.5 203.54,332.5 203.54,316" fill="#4472C4" stroke="#000000" stroke-width="1.33"/>
<polygon points="329,287.96 345.5,287.96 345.5,293 359,281 345.5,269 345.5,274.04 329,274.04" fill="#4472C4" stroke="#000000" stroke-width="1.33"/>
<rect x="356" y="145" width="272" height="272" fill="#FFFDFB" stroke="#000000" stroke-width="2"/>
<rect x="368" y="189" width="248" height="110" rx="6" ry="6" fill="#FFFDFB" stroke="#000000" stroke-width="2" stroke-dasharray="6.4 4"/>
<rect x="413.3" y="171" width="157.4" height="36" rx="5" ry="5" fill="#ED7D31"/>
<text x="492" font-family="Microsoft YaHei, SimHei, Noto Sans CJK SC, WenQuanYi Zen Hei, sans-serif" font-size="17.33" fill="#FFFFFF" text-anchor="middle" font-weight="bold"><tspan x="492" y="194.89">多模态特征提取</tspan></text>
<rect x="378" y="241" width="228" height="42" rx="5" ry="5" fill="#FBE5D6" stroke="#000000" stroke-width="2"/>
<text x="492" font-family="Microsoft YaHei, SimHei, Noto Sans CJK SC, WenQuanYi Zen Hei, sans-serif" font-size="16" fill="#000000" text-anchor="middle"><tspan x="492" y="267.44">特征对齐与融合</tspan></text>
<rect x="368" y="363" width="248" height="40" rx="5" ry="5" fill="#ED7D31" stroke="#000000" stroke-width="2"/>
<text x="492" font-family="Microsoft YaHei, SimHei, Noto Sans CJK SC, WenQuanYi Zen Hei, sans-serif" font-size="16" fill="#FFFFFF" text-anchor="middle" font-weight="bold"><tspan x="492" y="388.44">知识图谱构建</tspan></text>
<polygon points="484.46,316 484.46,332.5 479,332.5 492,346 505,332.5 499.54,332.5 499.54,316" fill="#4472C4" stroke="#000000" stroke-width="1.33"/>
<polygon points="625,287.96 641.5,287.96 641.5,293 655,281 641.5,269 641.5,274.04 625,274.04" fill="#4472C4" stroke="#000000" stroke-width="1.33"/>
<rect x="652" y="145" width="272" height="272" fill="#F8FCF6" stroke="#000000" stroke-width="2"/>
<rect x="664" y="189" width="248" height="110" rx="6" ry="6" fill="#F8FCF6" stroke="#000000" stroke-width="2" stroke-dasharray="6.4 4"/>
<rect x="713" y="171" width="150" height="36" rx="5" ry="5" fill="#70AD47"/>
<text x="788" font-family="Microsoft YaHei, SimHei, Noto Sans CJK SC, WenQuanYi Zen Hei, sans-serif" font-size="17.33" fill="#FFFFFF" text-anchor="middle" font-weight="bold"><tspan x="788" y="194.89">深度学习模型</tspan></text>
<rect x="674" y="241" width="228" height="42" rx="5" ry="5" fill="#E2EFDA" stroke="#000000" stroke-width="2"/>
<text x="788" font-family="Microsoft YaHei, SimHei, Noto Sans CJK SC, WenQuanYi Zen Hei, sans-serif" font-size="16" fill="#000000" text-anchor="middle"><tspan x="788" y="267.44">迁移学习策略</tspan></text>
<rect x="664" y="363" width="248" height="40" rx="5" ry="5" fill="#70AD47" stroke="#000000" stroke-width="2"/>
<text x="788" font-family="Microsoft YaHei, SimHei, Noto Sans CJK SC, WenQuanYi Zen Hei, sans-serif" font-size="16" fill="#FFFFFF" text-anchor="middle" font-weight="bold"><tspan x="788" y="388.44">模型压缩优化</tspan></text>
<polygon points="780.46,316 780.46,332.5 775,332.5 788,346 801,332.5 795.54,332.5 795.54,316" fill="#4472C4" stroke="#000000" stroke-width="1.33"/>
<polygon points="921,287.96 937.5,287.96 937.5,293 951,281 937.5,269 937.5,274.04 921,274.04" fill="#4472C4" stroke="#000000" stroke-width="1.33"/>
<rect x="948" y="145" width="272" height="272" fill="#F2EEFC" stroke="#000000" stroke-width="2"/>
<rect x="960" y="189" width="248" height="110" rx="6" ry="6" fill="#F2EEFC" stroke="#000000" stroke-width="2" stroke-dasharray="6.4 4"/>
<rect x="1009" y="171" width="150" height="36" rx="5" ry="5" fill="#7030A0"/>
<text x="1084" font-family="Microsoft YaHei, SimHei, Noto Sans CJK SC, WenQuanYi Zen Hei, sans-serif" font-size="17.33" fill="#FFFFFF" text-anchor="middle" font-weight="bold"><tspan x="1084" y="194.89">场景部署</tspan></text>
<rect x="970" y="241" width="228" height="42" rx="5" ry="5" fill="#EEEDFD" stroke="#000000" stroke-width="2"/>
<text x="1084" font-family="Microsoft YaHei, SimHei, Noto Sans CJK SC, WenQuanYi Zen Hei, sans-serif" font-size="16" fill="#000000" text-anchor="middle"><tspan x="1084" y="267.44">效果评估指标</tspan></text>
<rect x="960" y="363" width="248" height="40" rx="5" ry="5" fill="#7030A0" stroke="#000000" stroke-width="2"/>
<text x="1084" font-family="Microsoft YaHei, SimHei, Noto Sans CJK SC, WenQuanYi Zen Hei, sans-serif" font-size="16" fill="#FFFFFF" text-anchor="middle" font-weight="bold"><tspan x="1084" y="388.44">迭代优化</tspan></text>
<polygon points="1076.46,316 1076.46,332.5 1071,332.5 1084,346 1097,332.5 1091.54,332.5 1091.54,316" fill="#4472C4" stroke="#000000" stroke-width="1.33"/>
</svg>
